<?xml version="1.0" encoding="UTF-8"?><svg id="launcher_icon" xmlns="http://www.w3.org/2000/svg" xmlns:xlink="http://www.w3.org/1999/xlink" viewBox="0 0 300 300"><defs><linearGradient id="New_Gradient_Swatch_3" x1="118.65" y1="293.85" x2="118.65" y2="90.87" gradientUnits="userSpaceOnUse"><stop offset="0" stop-color="#255949"/><stop offset=".13" stop-color="#285b4b"/><stop offset=".23" stop-color="#326455"/><stop offset=".32" stop-color="#437364"/><stop offset=".33" stop-color="#467667"/><stop offset=".34" stop-color="#487869"/><stop offset=".4" stop-color="#538474"/><stop offset=".48" stop-color="#598b7b"/><stop offset=".7" stop-color="#5b8d7d"/></linearGradient><linearGradient id="New_Gradient_Swatch_2" x1="56.03" y1="233.16" x2="275.63" y2="233.16" gradientUnits="userSpaceOnUse"><stop offset="0" stop-color="#6a937d"/><stop offset=".33" stop-color="#81a279"/><stop offset=".66" stop-color="#9aad71"/><stop offset="1" stop-color="#e4ce43"/></linearGradient><linearGradient id="New_Gradient_Swatch_1" x1="6.15" y1="107.32" x2="275.49" y2="107.32" gradientUnits="userSpaceOnUse"><stop offset="0" stop-color="#1c91c5"/><stop offset=".31" stop-color="#588fb8"/><stop offset=".62" stop-color="#6e83ab"/><stop offset="1" stop-color="#8369a0"/></linearGradient><linearGradient id="linear-gradient" x1="203.2" y1="45.96" x2="112.51" y2="231.06" gradientUnits="userSpaceOnUse"><stop offset="0" stop-color="#4a4a7d"/><stop offset=".01" stop-color="#4a4e7f"/><stop offset=".05" stop-color="#4a5a86"/><stop offset=".11" stop-color="#4a6189"/><stop offset=".27" stop-color="#4b638b"/><stop offset=".65" stop-color="#4a6189"/><stop offset=".8" stop-color="#4a5a86"/><stop offset=".91" stop-color="#4a4d7f"/><stop offset="1" stop-color="#4a3c76"/><stop offset="1" stop-color="#4a3c76"/></linearGradient><linearGradient id="linear-gradient-2" x1="136.63" y1="179.38" x2="170.58" y2="120.57" gradientUnits="userSpaceOnUse"><stop offset="0" stop-color="#1c91c5"/><stop offset=".31" stop-color="#588fb8"/><stop offset=".62" stop-color="#6e83ab"/><stop offset="1" stop-color="#8369a0"/></linearGradient><linearGradient id="New_Gradient_Swatch_1-2" x1="197.56" y1="163.41" x2="214.27" y2="134.45" xlink:href="#New_Gradient_Swatch_1"/><linearGradient id="New_Gradient_Swatch_1-3" x1="99.27" y1="164.39" x2="116.69" y2="134.22" xlink:href="#New_Gradient_Swatch_1"/></defs><g id="Icon_group"><path id="Blue_left" d="m123.58,214.28c-25.26-10.42-43.09-35.3-43.09-64.28,0-38.33,31.18-69.51,69.51-69.51V6.15C70.68,6.15,6.15,70.68,6.15,150c0,70.29,50.69,128.96,117.43,141.41v-77.12Z" fill="#78afca"/><path id="Green_middle" d="m194.41,203.43c-12.05,10.04-27.54,16.08-44.41,16.08-38.33,0-69.51-31.18-69.51-69.51,0-24.95,13.22-46.86,33.02-59.13-53.94,29.15-82.77,85.58-65.72,135.65,10.86,31.9,38.07,54.48,72.03,64.12,9.74,2.09,19.83,3.2,30.18,3.2,15.49,0,30.42-2.47,44.41-7.02v-83.39Z" fill="url(#New_Gradient_Swatch_3)"/><path id="Yellow_bottom" d="m259.27,178.85c-17.01-11.49-40.11-7.02-51.61,9.99-5.56,8.23-12.7,15.03-20.85,20.12-13.59,13.71-33.85,25.66-57.93,32.81-26.89,7.98-53.05,8.34-72.85,2.46,13.55,22.49,36.35,38.56,63.51,46.34,9.97,2.16,20.18,3.28,30.46,3.28,47.86,0,92.44-23.7,119.26-63.39,11.49-17.01,7.02-40.11-9.99-51.61Z" fill="url(#New_Gradient_Swatch_2)"/><path id="Purple_top" d="m90.42,185.83c-6.49-10.76-9.93-23.15-9.93-35.83,0-38.33,31.18-69.51,69.51-69.51,23.06,0,44.58,11.41,57.57,30.53,11.53,16.98,34.65,21.4,51.63,9.87,16.98-11.53,21.4-34.65,9.87-51.63C242.23,29.75,197.72,6.15,150,6.15c-40.02,0-76.27,16.43-102.37,42.9-.4.74-.83,1.37-1.32,1.85-17.83,17.38-28.57,39.83-28.57,64.34,0,42.5,32.31,78.81,77.86,93.24.72-7.65-.91-15.58-5.18-22.66Z" fill="url(#New_Gradient_Swatch_1)"/><path id="Purple_middle" d="m271.33,107.23s0,0,0,0c3.08-5.96,4.48-12.66,4.08-19.34-.58-2.74-1.17-4.22-2.68-7.32-.95-1.94-3.71-5.33-4.45-5.91-3.55-4.15-7.09-6.35-11.58-9.12-20.03-12.39-43.62-13.91-68.08-12.51-50.92,2.92-101.43,36.69-126.08,80.79-8.23,14.72-15.47,29.19-17.78,44.34,27.6,27.37,69.03,46.97,107.83,41.29-3.48-.23-6.8-.65-9.97-1.23-34.4-3.69-61.28-32.88-61.28-68.24,0-37.85,30.79-68.64,68.64-68.64.06,0,.12,0,.18,0,9.75-.29,20.5,1.85,32.1,7.08,19.74-6.88,50.42-13.62,69.84-6.91,10.91,3.77,22.81,15.09,19.22,25.7Z" fill="url(#linear-gradient)"/></g><path id="USD" d="m175.94,161.41c0-11.06-9.65-14-18.35-16.12v-13.29c3.88.47,8,1.76,12,4.12l4-9.76c-4.35-2.71-10.12-4.35-16-4.82v-8.47h-7.88v8.7c-12.47,1.41-18.47,8.59-18.47,16.94,0,11.17,9.76,14.12,18.47,16.23v13.17c-5.65-.59-11.29-2.71-15.29-5.65l-4.35,9.65c4.35,3.41,11.88,5.76,19.64,6.23v8.59h7.88v-8.82c12.35-1.41,18.35-8.47,18.35-16.7h0Zm-32.11-23.41c0-2.59,1.65-4.82,5.88-5.76v11.17c-3.41-1.18-5.88-2.59-5.88-5.41h0Zm13.76,29.76v-10.82c3.41,1.18,5.65,2.71,5.65,5.41,0,2.47-1.76,4.59-5.65,5.41h0Z" fill="url(#linear-gradient-2)"/><path id="EUR" d="m208.12,160.23c-3.93,0-7.07-1.98-8.67-5.18h11.06v-3.84h-12.17c-.06-.38-.06-.83-.06-1.22s0-.83.06-1.22h12.17v-3.84h-11.06c1.6-3.2,4.73-5.18,8.67-5.18,3.07,0,5.65,1.28,7.74,3.77l4.49-4.41c-2.89-3.65-7.25-5.63-12.6-5.63-7.74,0-13.89,4.54-15.92,11.45h-4.92v3.84h4.3c-.06.38-.06.83-.06,1.22s0,.83.06,1.22h-4.3v3.84h4.92c2.03,6.91,8.17,11.45,15.92,11.45,5.35,0,9.71-1.98,12.6-5.69l-4.49-4.41c-2.09,2.56-4.67,3.84-7.74,3.84h0Z" fill="url(#New_Gradient_Swatch_1-2)"/><path id="BTC" d="m121.39,152.39c-.56-.9-1.33-1.6-2.31-2.1-.67-.36-1.64-.69-2.92-.99,1.18-.37,2.14-.83,2.86-1.4.73-.57,1.27-1.23,1.65-1.97.39-.74.59-1.52.59-2.35,0-1.13-.36-2.18-1.09-3.13-.73-.95-1.76-1.68-3.11-2.18-.52-.2-1.14-.35-1.82-.47v-4.41h-4.58v4.12h-2.95v-4.12h-4.58v4.12h-7v3.46h1.06c.71,0,1.2.06,1.45.18.25.12.43.28.54.49.11.2.16.68.16,1.42v13.95c0,.73-.05,1.19-.16,1.4-.1.21-.29.37-.54.49-.25.11-.74.17-1.45.17h-1.06v3.45h7v4.12h4.58v-4.12h2.95v4.12h4.58v-4.47c.78-.14,1.45-.31,2.03-.53,1.58-.58,2.81-1.43,3.67-2.55.88-1.12,1.31-2.34,1.31-3.67,0-1.1-.29-2.11-.86-3.01Zm-15.36-10.86h2.97c1.73,0,2.95.1,3.62.3.67.19,1.19.53,1.54.99.36.47.54,1.04.54,1.69s-.19,1.19-.56,1.67c-.38.49-.94.85-1.68,1.08-.75.24-1.89.36-3.45.36h-2.97v-6.1h0Zm8.39,15.46c-.53.62-1.16,1.03-1.93,1.22-.75.2-1.7.3-2.85.3h-1.98c-.66,0-1.06-.04-1.21-.1-.15-.06-.25-.18-.32-.34-.05-.14-.08-.58-.09-1.35v-5.41h3.5c1.55,0,2.68.13,3.43.4.75.26,1.32.65,1.68,1.17.38.51.57,1.13.57,1.88,0,.88-.27,1.62-.8,2.25Z" fill="url(#New_Gradient_Swatch_1-3)"/></svg>