<svg id="Layer_1" data-name="Layer 1" xmlns="http://www.w3.org/2000/svg" viewBox="0 0 352.05 352.05"><defs><style>.cls-1{fill:#fff;}</style></defs><path class="cls-1" d="M242.7,256,342.8,155.9a31.45,31.45,0,0,0,0-44.5L320.6,89.2a31.45,31.45,0,0,0-44.5,0L176,189.3,75.9,89.2a31.45,31.45,0,0,0-44.5,0L9.2,111.4a31.45,31.45,0,0,0,0,44.5L109.3,256,9.2,356.1a31.45,31.45,0,0,0,0,44.5l22.2,22.2a31.45,31.45,0,0,0,44.5,0L176,322.7,276.1,422.8a31.45,31.45,0,0,0,44.5,0l22.2-22.2a31.45,31.45,0,0,0,0-44.5Z" transform="translate(0.03 -79.97)"/></svg>