<svg id="Layer_1" data-name="Layer 1" xmlns="http://www.w3.org/2000/svg" viewBox="0 0 192 192"><defs><style>.cls-1{fill:#4285f4;}.cls-2{fill:#34a853;}.cls-3{fill:#fbbc05;}.cls-4{fill:#ea4335;}</style></defs><path class="cls-1" d="M168.82,22l0,0-4.69-3.08h.14l.05-4.77a.68.68,0,0,0-.68-.68l-3.46,0a.69.69,0,0,0-.7.68l0,1.68-6.49-4.26a.7.7,0,0,0-.77,0L136.08,22.16a2.11,2.11,0,0,0-.66,2.91,2.15,2.15,0,0,0,3,.59l0,0,2.24-1.47-.14,13.27h-1.39a.67.67,0,0,0-.68-.68l-5.54,0a.71.71,0,0,0-.7.69h-2.76l0,1.36h2.77l-.08,6.81-2.76,0,0,1.36h2.77a.67.67,0,0,0,.68.67l5.54,0A.7.7,0,0,0,139,47v-.26l5.15,2.09a12.14,12.14,0,0,0,8.8.06L163.7,44.8a2.59,2.59,0,0,0,1.43-1.33,2.56,2.56,0,0,0,.06-2A2.46,2.46,0,0,0,164,40.22l.17-16.16,2.21,1.45a2.18,2.18,0,0,0,3-.57A2.07,2.07,0,0,0,168.82,22ZM137.63,46.31l-4.15,0,.09-8.18,4.15,0Zm23.18-31.46h2.08l0,3.27-2.06-1.35Zm3.06,28.07a1.18,1.18,0,0,1-.65.61l-10.74,4.06a10.71,10.71,0,0,1-7.78,0L139,45.25l.07-6.44h1.75a14.84,14.84,0,0,1,6.6,1.5,4.94,4.94,0,0,0,2.18.5l5.36,0a1,1,0,0,1,1,1,1.05,1.05,0,0,1-.82,1l-.27,0-8.26,0,0,1.36,8.26,0H155a4.41,4.41,0,0,0,1.6-.34l5.81-2.45a1.1,1.1,0,0,1,.87,0,1.08,1.08,0,0,1,.61.63A1.13,1.13,0,0,1,163.87,42.92ZM155,39.41l-5.37,0a3.5,3.5,0,0,1-1.56-.36,16.42,16.42,0,0,0-6.2-1.62L142,23.25l10.45-6.86,10.31,6.76L162.62,40a2.36,2.36,0,0,0-.74.18l-4.5,1.9,0-.26A2.36,2.36,0,0,0,155,39.41Zm12.92-15h0a.76.76,0,0,1-.77,0L152.89,15a.7.7,0,0,0-.77,0l-14.47,9.5a.75.75,0,0,1-1-.2.73.73,0,0,1-.12-.41.74.74,0,0,1,.34-.61L152.53,13,168,23.14a.73.73,0,0,1,.33.61A.75.75,0,0,1,167.93,24.4Z"/><polygon class="cls-1" points="134.64 43.51 136.02 43.5 136.01 44.87 134.62 44.87 134.64 43.51"/><path class="cls-1" d="M154.07,30a1.9,1.9,0,0,0-1-1.16l-1.34-.65a.59.59,0,0,1-.26-.78.62.62,0,0,1,.54-.33h.2a.57.57,0,0,1,.58.58v.1h1.39v-.1a1.93,1.93,0,0,0-1.37-1.84V25h-1.38v.78a2,2,0,0,0-1.32,2.43,1.9,1.9,0,0,0,1,1.16l1.34.66a.58.58,0,0,1,.26.78.63.63,0,0,1-.54.32H152a.57.57,0,0,1-.58-.58v-.1H150v.1a1.92,1.92,0,0,0,1.37,1.84v.78h1.38v-.78A2,2,0,0,0,154.07,30Z"/><path class="cls-1" d="M152.17,22.3a7,7,0,0,0-7,6.85A6.74,6.74,0,0,0,152,35.93a7,7,0,0,0,7-6.85A6.74,6.74,0,0,0,152.17,22.3ZM152,34.57a5.4,5.4,0,0,1-5.48-5.43,5.6,5.6,0,0,1,5.59-5.48,5.4,5.4,0,0,1,5.48,5.43A5.6,5.6,0,0,1,152,34.57Z"/><polygon class="cls-1" points="154.87 28.42 156.25 28.41 156.24 29.78 154.86 29.78 154.87 28.42"/><polygon class="cls-1" points="147.95 28.45 149.33 28.45 149.32 29.81 147.94 29.82 147.95 28.45"/><path class="cls-1" d="M139.5,84.53l-14.19-2.39q2.39-8,8.23-11.83t17.36-3.84q10.46,0,15.58,2.31t7.2,5.87q2.08,3.54,2.09,13l-.17,17a55.22,55.22,0,0,0,.75,10.71,30,30,0,0,0,2.81,7.39H163.7c-.41-1-.91-2.4-1.51-4.3-.26-.87-.44-1.44-.55-1.72a28.21,28.21,0,0,1-8.57,5.45,26.11,26.11,0,0,1-9.74,1.82q-9.12,0-14.38-4.62a15.64,15.64,0,0,1-2.86-20,15.3,15.3,0,0,1,6.7-5.6,55.25,55.25,0,0,1,12.44-3.4q11-1.92,15.18-3.58V85.41q0-4.2-2.22-6c-1.49-1.2-4.29-1.79-8.4-1.79a11.83,11.83,0,0,0-6.51,1.53A10.59,10.59,0,0,0,139.5,84.53Zm20.91,11.83q-3,.93-9.51,2.23t-8.51,2.54a6,6,0,0,0-3.06,5.13,6.93,6.93,0,0,0,2.45,5.3,8.91,8.91,0,0,0,6.23,2.23,14.16,14.16,0,0,0,8.06-2.6,9.11,9.11,0,0,0,3.73-4.82,26.91,26.91,0,0,0,.61-7.11Z"/><path class="cls-2" d="M131.4,172.66h16.87v6.14a.76.76,0,0,0,.76.76H169a.76.76,0,0,0,.77-.76h0v-6.53a4.59,4.59,0,0,0-1.84-3.68l-3.64-2.74a6.11,6.11,0,0,0,.88-3.17v-9.21a2.3,2.3,0,0,0-2.3-2.31h-1.35a2.3,2.3,0,0,0-1.72-.76h-1.53v-5.9a3.1,3.1,0,0,0-1-2.26l-8.57-7.92a3.09,3.09,0,0,0-2.08-.81H131.4a3.06,3.06,0,0,0-3.06,3.07v33A3.07,3.07,0,0,0,131.4,172.66Zm23.3-5.61a5.89,5.89,0,0,0,1.37,1l.62,3.09L156,178h-6.2v-5.76a3.08,3.08,0,0,1,1.23-2.45Zm-.3-10.51h3.83a3.86,3.86,0,0,0,3-1.5,3.91,3.91,0,0,0,2.33,1.42v6.22a4.6,4.6,0,0,1-9.2,0ZM165.9,178H162l-.23-2.3h4.14Zm-7.74-6.14h1.68l.61,6.14h-2.9Zm1.74-1.54h-1.81l-.33-1.66a6.17,6.17,0,0,0,2.46,0Zm8.3,1.92V178h-.77V175a.77.77,0,0,0-.77-.77h-5l-.3-3,.59-3.07a6.16,6.16,0,0,0,1.39-1l3.68,2.77A3.11,3.11,0,0,1,168.2,172.27Zm-5.37-19.57a.77.77,0,0,1,.77.77v1.41a2.43,2.43,0,0,1-1.54-1.54l0-.11a4.71,4.71,0,0,0,0-.53Zm-3.07-.77a.76.76,0,0,1,.77.77,2.3,2.3,0,0,1-2.3,2.3H154.4v-1.53a1.54,1.54,0,0,1,1.53-1.54Zm-29.89-15.35A1.54,1.54,0,0,1,131.4,135h15.33v6.13a3.08,3.08,0,0,0,3.07,3.07h3.83v-1.53H149.8a1.53,1.53,0,0,1-1.53-1.54V136l7.94,7.34a1.55,1.55,0,0,1,.49,1.13v5.9h-.77a3.06,3.06,0,0,0-3,2.3h-6.23v1.53h6.14v3.07h-4.6v1.54h4.6v3.07h-6.14v1.54h6.19a6,6,0,0,0,.83,2.4l-.88.67H142.13v1.53h8.69l-.71.54a4.58,4.58,0,0,0-1.69,2.53h-17a1.54,1.54,0,0,1-1.53-1.53Z"/><path class="cls-2" d="M138.22,167.84h-6.51v-1.33h5.41v-3.3h1.11Z"/><path class="cls-2" d="M135,162.54a4.22,4.22,0,0,1-1.69-.3,3.18,3.18,0,0,1-.9-.61,2.66,2.66,0,0,1-.59-.85,3.65,3.65,0,0,1-.26-1.41,3.1,3.1,0,0,1,.9-2.33,4,4,0,0,1,5,0,3.07,3.07,0,0,1,.9,2.31,3.14,3.14,0,0,1-.89,2.34A3.43,3.43,0,0,1,135,162.54Zm0-1.36a2.53,2.53,0,0,0,1.69-.52,1.71,1.71,0,0,0,.58-1.31,1.67,1.67,0,0,0-.58-1.3,2.5,2.5,0,0,0-1.71-.51,2.46,2.46,0,0,0-1.68.5,1.68,1.68,0,0,0-.56,1.31,1.66,1.66,0,0,0,.57,1.32A2.44,2.44,0,0,0,134.93,161.18Z"/><path class="cls-2" d="M138.21,149.2v1.45l-1.49.57v2.63l1.49.54v1.41l-6.56-2.56v-1.4Zm-2.6,2.45-2.43.91,2.43.88Z"/><path class="cls-2" d="M138.21,148.48h-6.57V147.2l4.38-2.69h-4.38v-1.23h6.56v1.33l-4.28,2.66h4.29Z"/><path class="cls-2" d="M136.07,142.21l-.13-1.29a1.57,1.57,0,0,0,.95-.48,1.46,1.46,0,0,0,.31-1,1.5,1.5,0,0,0-.28-1,.82.82,0,0,0-.63-.32.61.61,0,0,0-.4.14,1.18,1.18,0,0,0-.28.47c-.05.16-.15.51-.29,1.07a3.67,3.67,0,0,1-.64,1.5,1.71,1.71,0,0,1-1.32.6,1.67,1.67,0,0,1-.94-.28,1.89,1.89,0,0,1-.67-.82,3.36,3.36,0,0,1-.23-1.3,2.79,2.79,0,0,1,.54-1.86,1.91,1.91,0,0,1,1.45-.66l.06,1.33a1.13,1.13,0,0,0-.73.37,1.3,1.3,0,0,0-.22.84,1.5,1.5,0,0,0,.24.9.48.48,0,0,0,.41.21.49.49,0,0,0,.39-.19,3.52,3.52,0,0,0,.44-1.22,6.51,6.51,0,0,1,.47-1.44,1.87,1.87,0,0,1,.67-.72,1.89,1.89,0,0,1,1-.27,1.94,1.94,0,0,1,1.06.32,1.82,1.82,0,0,1,.73.88,3.71,3.71,0,0,1,.24,1.43,2.84,2.84,0,0,1-.57,1.92A2.53,2.53,0,0,1,136.07,142.21Z"/><path class="cls-2" d="M142.13,147.9H149v1.54h-6.9Z"/><path class="cls-2" d="M150.57,147.9h4.5v1.54h-4.5Z"/><path class="cls-2" d="M142.13,143.2h4.51v1.53h-4.51Z"/><path class="cls-2" d="M142.13,161.91H146v1.54h-3.84Z"/><path class="cls-2" d="M142.13,157.4h4.79v1.54h-4.79Z"/><path class="cls-2" d="M142.13,152.7h3.55v1.53h-3.55Z"/><circle class="cls-2" cx="156.41" cy="160.66" r="0.77"/><path class="cls-2" d="M154.88,157.59h2.3v1.54h-2.3Z"/><circle class="cls-2" cx="161.01" cy="160.66" r="0.77"/><path class="cls-2" d="M160.24,157.59h2.3v1.54h-2.3Z"/><path class="cls-2" d="M156.32,163h4.79v1.53h-4.79Z"/><path class="cls-2" d="M97.47,104.26V33.85h15.8V105c0,4.06,1.56,5.35,2.85,5.35a5.78,5.78,0,0,0,1.94-.26l1.88,14a17.49,17.49,0,0,1-7.93,1.58C101.17,125.68,97.47,117.2,97.47,104.26Z"/><path class="cls-2" d="M97.47,104.26V33.85h15.8V105c0,4.06,1.56,5.35,2.85,5.35a5.78,5.78,0,0,0,1.94-.26l1.88,14a17.49,17.49,0,0,1-7.93,1.58C101.17,125.68,97.47,117.2,97.47,104.26Z"/><path class="cls-3" d="M37.3,30H35.84V31.5a2.11,2.11,0,0,0-1.34,2.72,2.19,2.19,0,0,0,2.07,1.42.72.72,0,1,1,0,1.43h-2.2v1.42h1.47v1.42H37.3V38.36a2.12,2.12,0,0,0,1.35-2.72,2.21,2.21,0,0,0-2.08-1.42.71.71,0,1,1,0-1.42h2.2V31.38H37.3Z"/><rect class="cls-3" x="47.58" y="31.38" width="1.47" height="1.42"/><path class="cls-3" d="M66.65,31.38a.72.72,0,0,0-.73-.71H60.78V25a.72.72,0,0,0-.73-.71H54.91V18.59a.72.72,0,0,0-.73-.71H49V12.19a.72.72,0,0,0-.73-.71H42.44a.72.72,0,0,0-.73.71V22.85h1.46v-10h4.41V30H49V19.3h4.4V42H48.06A5.46,5.46,0,0,0,48.67,41a5.14,5.14,0,0,0,.37-1.9V37.92a5.32,5.32,0,0,0-2.11-4.25,4,4,0,0,1-1.56-3.14,7.31,7.31,0,0,0-4.21-6.6l-1.5-.73,1.13-3.37a1.82,1.82,0,0,0-1.22-2.31,1.91,1.91,0,0,0-1.39.08l0-.05a2.23,2.23,0,0,0-3.11,0h0L35,17.6a1.92,1.92,0,0,0-2.52.89,1.74,1.74,0,0,0-.09,1.34l1.13,3.37-1.5.73a7.31,7.31,0,0,0-4.21,6.6,4,4,0,0,1-1.56,3.14,5.35,5.35,0,0,0-2.11,4.25v1.14a5.2,5.2,0,0,0,5.28,5.11H43.77a5.41,5.41,0,0,0,2.69-.71H68.12V42H66.65ZM33.77,19.08a.44.44,0,0,1,.58-.19h0l.43.21a.74.74,0,0,0,.84-.13l.43-.42a.75.75,0,0,1,1,0h0l.43.42a.76.76,0,0,0,.85.13l.42-.21a.44.44,0,0,1,.58.19.4.4,0,0,1,0,.32l-1.15,3.45H34.9L33.75,19.4A.4.4,0,0,1,33.77,19.08ZM29.38,42.75a3.75,3.75,0,0,1-3.81-3.69V37.92a3.93,3.93,0,0,1,1.56-3.14,5.39,5.39,0,0,0,2.11-4.25,5.91,5.91,0,0,1,3.39-5.33l1.91-.93h.11L33,27.51l1.31.63,2-3.87h.56l2,3.87,1.31-.63-1.67-3.24h.11l1.91.93a5.9,5.9,0,0,1,3.4,5.33A5.33,5.33,0,0,0,46,34.78a4,4,0,0,1,1.56,3.14v1.14a3.75,3.75,0,0,1-3.81,3.69H29.38ZM54.91,25.69h4.4V42h-4.4ZM60.78,42V32.09h4.4V42Z"/><path class="cls-3" d="M91.56,58.85c0,4.42-3.24,7.94-8.51,7.94-5,0-8.27-3.52-8.25-7.94s3.31-8,8.39-8S91.5,54.29,91.56,58.85ZM75.25,124.16V73H91.11v51.12Z"/><path class="cls-4" d="M48.22,143.22a5.87,5.87,0,0,0-5.95-5,6.26,6.26,0,0,0-4.91,2.5.68.68,0,0,0,.14,1,.73.73,0,0,0,1-.17,4.83,4.83,0,0,1,3.76-1.91,4.5,4.5,0,0,1,4.55,3.82.69.69,0,0,0,.7.59h.1A.72.72,0,0,0,48.22,143.22Z"/><path class="cls-4" d="M58.44,150.88l-2.11-3.46a.72.72,0,0,0-.61-.33l-2,0a.72.72,0,0,0-.72.71.69.69,0,0,0,.7.69l1.65,0,1.26,2.07L27.75,151l1.3-2.11h.75a.73.73,0,0,0,.72-.71.68.68,0,0,0-.71-.68H28.66a.77.77,0,0,0-.62.35l-2.17,3.51a.68.68,0,0,0,0,.7.7.7,0,0,0,.62.35l31.34-.44a.73.73,0,0,0,.62-.36A.68.68,0,0,0,58.44,150.88Z"/><path class="cls-4" d="M54.94,144.5a.67.67,0,0,0-.44-.3l-9.69-2.09a.76.76,0,0,0-.86.53l-.76,3.08a.68.68,0,0,0,.53.82.72.72,0,0,0,.86-.53l.59-2.39,8.31,1.79-1.36,5.49a.69.69,0,0,0,.52.83h.17a.71.71,0,0,0,.69-.55L55,145A.71.71,0,0,0,54.94,144.5Z"/><path class="cls-4" d="M42.58,146.32,42,141a.71.71,0,0,0-.27-.46.72.72,0,0,0-.52-.14l-11.93,1.55a.72.72,0,0,0-.63.78l1,8.94a.69.69,0,0,0,.71.6h.08a.72.72,0,0,0,.63-.78l-.92-8.25,10.51-1.36.52,4.67a.68.68,0,0,0,.79.59A.72.72,0,0,0,42.58,146.32Z"/><path class="cls-4" d="M48.17,151.11l-1.37-5.73a.66.66,0,0,0-.31-.42.73.73,0,0,0-.54-.08l-11.5,2.86a.72.72,0,0,0-.53.85l.68,2.86a.68.68,0,0,0,.85.5.7.7,0,0,0,.53-.84l-.52-2.19,10.12-2.52,1.2,5.06a.67.67,0,0,0,.68.52.47.47,0,0,0,.17,0A.72.72,0,0,0,48.17,151.11Z"/><path class="cls-4" d="M58.54,151.2a.69.69,0,0,0-.71-.65L26.49,151a.74.74,0,0,0-.72.68L24.1,178.84a.72.72,0,0,0,.19.52.69.69,0,0,0,.52.2L59,179.09a.8.8,0,0,0,.52-.23.69.69,0,0,0,.19-.51Zm-33,27,1.58-25.79,30-.42,1.12,25.75Z"/><path class="cls-4" d="M47.48,153.48a2.17,2.17,0,0,0-2.16,2.12,2.06,2.06,0,0,0,2.12,2.06,2.17,2.17,0,0,0,2.15-2.12A2.06,2.06,0,0,0,47.48,153.48Zm0,2.78a.67.67,0,0,1-.7-.68.72.72,0,0,1,.71-.71.69.69,0,0,1,.71.69A.72.72,0,0,1,47.45,156.26Z"/><path class="cls-4" d="M36.79,153.63a2.16,2.16,0,0,0-2.15,2.12,2.06,2.06,0,0,0,2.11,2.06,2.18,2.18,0,0,0,2.16-2.12A2.05,2.05,0,0,0,36.79,153.63Zm0,2.78a.68.68,0,0,1-.71-.68.73.73,0,0,1,.72-.71.69.69,0,0,1,.71.69A.73.73,0,0,1,36.77,156.41Z"/><path class="cls-4" d="M47.46,155.57H47.4a.73.73,0,0,0-.72.7.6.6,0,0,0,.06.27l0,3.56A4.71,4.71,0,0,1,42,164.7a4.47,4.47,0,0,1-4.59-4.47l0-3.83a.68.68,0,0,0-.71-.68.73.73,0,0,0-.72.7l0,3.83a5.83,5.83,0,0,0,6,5.84,6.17,6.17,0,0,0,6.11-6l0-3.84A.67.67,0,0,0,47.46,155.57Z"/><path class="cls-4" d="M51.63,105.46l15.58,2.43a24,24,0,0,1-9.48,12.17q-6.49,4.17-16.22,4.18-15.4,0-22.81-9.39-5.83-7.53-5.84-19,0-13.69,7.68-21.45T40,66.65q13.19,0,20.81,8.12T68,99.65H28.88q.16,6.48,3.78,10.09a12.27,12.27,0,0,0,9,3.6,10,10,0,0,0,6.17-1.87A11.37,11.37,0,0,0,51.63,105.46Zm.89-14.74q-.17-6.33-3.5-9.62a11.11,11.11,0,0,0-8.12-3.29,11.21,11.21,0,0,0-8.46,3.47q-3.33,3.48-3.28,9.44Z"/></svg>